<svg version="1.1" id="Layer_1" xmlns="http://www.w3.org/2000/svg" xmlns:xlink="http://www.w3.org/1999/xlink" x="0px" y="0px"
	 width="100%" viewBox="0 0 500 500" enable-background="new 0 0 500 500" xml:space="preserve">
<path fill="#6C63FF" opacity="1.000000" stroke="none" 
	d="
M285.000000,501.000000 
	C190.000015,501.000000 95.500046,501.000000 1.000051,501.000000 
	C1.000034,334.333405 1.000034,167.666794 1.000017,1.000140 
	C167.666565,1.000093 334.333130,1.000093 500.999756,1.000047 
	C500.999847,167.666519 500.999847,334.333038 500.999939,500.999786 
	C429.166656,501.000000 357.333344,501.000000 285.000000,501.000000 
M340.424133,279.002747 
	C340.424133,279.002747 340.850433,279.004608 341.138153,279.659637 
	C346.724915,291.734772 357.144043,296.631958 370.287262,293.360291 
	C379.742340,291.006683 385.867218,284.136627 385.365875,276.253723 
	C380.741608,276.253723 376.104462,276.253723 371.394897,276.253723 
	C370.990784,277.020355 370.523712,277.719666 370.235077,278.486145 
	C368.976166,281.829254 366.630432,283.721649 363.026154,283.472931 
	C359.340546,283.218597 357.274536,280.737366 356.721619,277.367554 
	C356.134277,273.787781 355.845337,270.099457 355.965942,266.476532 
	C356.163544,260.540344 358.672760,257.169373 362.649384,256.729645 
	C368.015900,256.136230 369.949432,259.643036 371.234283,263.937164 
	C371.312347,264.197998 371.674133,264.373932 371.746582,264.441833 
	C376.499420,264.441833 381.077545,264.441833 386.034790,264.441833 
	C385.643250,261.930115 385.318451,259.846649 384.943939,257.444244 
	C386.716309,257.444244 388.251312,257.444244 390.339111,257.444244 
	C390.339111,259.714355 390.311584,261.679626 390.344116,263.643921 
	C390.457245,270.469910 390.331543,277.313263 390.795776,284.115936 
	C391.199860,290.037018 393.980499,292.772614 399.774384,293.750549 
	C402.056854,294.135773 404.422119,294.152527 406.748230,294.135284 
	C415.712555,294.068817 415.911041,293.809631 414.855713,284.773193 
	C414.837891,284.620819 414.699036,284.482574 414.537445,284.198395 
	C411.339050,283.402588 406.491608,284.489563 406.234467,279.256348 
	C405.878632,272.013550 406.145172,264.740173 406.145172,257.296326 
	C409.766052,257.137878 412.823395,257.004059 415.746399,256.876160 
	C415.746399,253.443085 415.746399,250.676010 415.746399,247.693176 
	C412.400269,247.444916 409.346344,247.218338 405.930786,246.964935 
	C405.930786,243.034073 405.930786,239.588547 405.930786,235.970367 
	C400.611694,235.970367 395.709686,235.970367 390.612061,235.970367 
	C390.396545,239.907272 390.201416,243.471420 390.007751,247.008759 
	C387.480743,247.287903 385.521057,247.504364 383.413361,247.737198 
	C383.170166,249.756378 382.948669,251.595535 382.648315,254.089600 
	C375.718262,246.744156 367.678925,244.902695 358.843170,246.422256 
	C349.550934,248.020340 343.612305,253.800873 340.456665,263.220856 
	C339.829254,261.822357 339.488983,261.075684 339.158203,260.324829 
	C333.960785,248.526031 323.083588,243.461884 310.437836,246.954681 
	C299.024933,250.106964 291.757782,261.163544 293.341309,272.966156 
	C295.188660,286.735107 303.121765,293.932922 316.590302,294.143250 
	C327.793457,294.318207 335.739746,289.526642 340.424133,279.002747 
M174.901718,293.805786 
	C188.737152,290.084625 194.830643,281.690125 193.953796,267.559235 
	C193.240570,256.065094 185.479980,247.703705 173.877213,246.235443 
	C167.302277,245.403397 160.889481,246.129013 155.093826,249.705826 
	C147.045319,254.673004 145.027100,262.782867 144.468628,271.793976 
	C140.817108,271.793976 137.668030,271.930969 134.536682,271.754242 
	C131.585388,271.587677 129.661209,272.041138 128.711411,275.484039 
	C127.440834,280.089691 123.858780,282.594788 119.032692,282.750183 
	C114.300369,282.902527 110.431160,280.874908 108.479141,276.545166 
	C104.600311,267.941620 104.299728,259.028656 108.342400,250.449280 
	C111.516701,243.712799 120.365700,241.647064 125.701408,246.254883 
	C127.849312,248.109787 129.046494,251.065582 130.849365,253.780884 
	C135.297974,253.780884 140.216690,253.780884 145.147171,253.780884 
	C144.467834,242.452484 136.768387,234.664139 124.922920,233.025772 
	C108.683128,230.779617 96.087013,237.662750 91.224571,251.440170 
	C85.988655,266.275818 90.967278,283.303162 102.515549,290.161713 
	C109.304146,294.193451 116.705559,294.785004 124.257637,293.746613 
	C134.191620,292.380676 141.195847,286.875946 144.398499,278.290314 
	C148.122040,282.506714 151.177872,287.138458 155.324753,290.370239 
	C160.668961,294.535156 167.439377,294.507935 174.901718,293.805786 
M234.442184,247.808655 
	C225.911621,244.680191 217.959961,244.573959 211.420868,252.964661 
	C211.136551,250.645218 210.942657,249.063477 210.725159,247.289154 
	C205.781723,247.289154 201.004562,247.289154 195.918152,247.289154 
	C195.918152,262.535004 195.918152,277.587372 195.918152,292.738586 
	C201.003342,292.738586 205.762375,292.738586 211.086136,292.738586 
	C211.086136,285.713440 210.841171,278.929077 211.179977,272.174011 
	C211.376434,268.256805 212.123260,264.259491 213.343063,260.534180 
	C214.381226,257.363617 217.507050,255.693344 220.593918,256.989410 
	C222.812012,257.920685 225.215271,260.196564 225.964752,262.405670 
	C226.992188,265.434113 226.645691,268.966095 226.684677,272.284668 
	C226.764435,279.068848 226.708588,285.854675 226.708588,292.739014 
	C232.044037,292.739014 236.802917,292.739014 241.665115,292.739014 
	C241.665115,280.893677 242.142395,269.279022 241.365372,257.748932 
	C241.141190,254.422379 237.308640,251.338989 234.442184,247.808655 
M261.081879,284.447205 
	C261.081879,282.281891 260.948212,280.106598 261.108368,277.953217 
	C261.501465,272.667328 261.636322,267.315491 262.636047,262.137146 
	C263.358215,258.396484 266.155975,256.228516 270.411865,256.759125 
	C274.479126,257.266266 276.132111,259.872162 276.354431,263.565643 
	C276.604309,267.716644 276.656403,271.882263 276.696533,276.042480 
	C276.750275,281.611847 276.709839,287.182129 276.709839,292.637573 
	C282.299866,292.637573 287.045837,292.637573 291.906799,292.637573 
	C291.906799,281.303528 292.226990,270.321899 291.797394,259.369720 
	C291.497009,251.712479 286.281647,246.914902 278.634247,246.120377 
	C271.961426,245.427094 265.804413,246.387039 261.474670,253.215530 
	C261.125977,250.592148 260.914886,249.004059 260.693787,247.340546 
	C255.681274,247.340546 250.919464,247.340546 246.011261,247.340546 
	C246.011261,262.643890 246.011261,277.676849 246.011261,292.665344 
	C251.180878,292.665344 255.929123,292.665344 261.081879,292.665344 
	C261.081879,290.034332 261.081879,287.729797 261.081879,284.447205 
M361.498993,194.563461 
	C362.758301,194.445526 364.115906,193.963791 365.259827,194.272903 
	C370.097839,195.580185 373.459137,193.526123 375.713348,189.601990 
	C377.978363,185.659073 377.158844,181.793488 373.911407,178.690445 
	C370.852417,175.767471 367.182037,174.944992 363.374817,177.139954 
	C359.166168,179.566330 357.505920,183.228317 358.594055,188.127960 
	C358.874084,189.388962 358.941010,191.384781 358.201752,192.075623 
	C352.404785,197.493011 346.387787,202.674896 340.317566,208.036346 
	C335.180481,203.236160 330.046661,202.579987 324.730530,206.889542 
	C320.236267,202.941910 315.767639,199.429153 311.825012,195.401489 
	C309.399139,192.923294 307.569031,189.775406 305.847717,186.716492 
	C303.797913,183.073792 301.167114,180.631943 296.783936,180.937286 
	C292.528778,181.233719 288.905487,183.474640 288.504822,187.582657 
	C288.048309,192.263306 285.133148,194.534393 282.220978,197.143250 
	C277.880646,201.031555 273.404114,204.770294 269.129028,208.727737 
	C267.251801,210.465500 265.698334,211.085251 263.026794,210.100067 
	C258.814392,208.546677 255.119904,210.012939 252.702332,213.898605 
	C250.335220,217.703186 250.312805,221.600647 253.491486,224.916885 
	C256.339752,227.888382 259.959412,229.179123 263.923096,227.218262 
	C268.036530,225.183319 269.916870,221.797028 269.494843,217.061478 
	C269.368805,215.646973 269.741241,213.655151 270.679535,212.765289 
	C276.709167,207.046844 282.959564,201.561142 289.057648,196.070847 
	C296.734192,200.667358 298.369873,200.586807 305.649109,195.253799 
	C310.161835,199.295319 314.918945,203.206375 319.215057,207.571167 
	C320.992035,209.376526 322.208435,212.031204 322.924255,214.517166 
	C324.153259,218.785370 326.291870,221.732315 330.930756,222.186493 
	C335.338226,222.617996 339.499481,221.304718 340.439636,216.815063 
	C341.406830,212.196259 344.384888,209.708252 347.447723,206.968002 
	C351.914642,202.971588 356.415985,199.013687 361.498993,194.563461 
z"/>
<path fill="#FBFBFF" opacity="1.000000" stroke="none" 
	d="
M339.997803,279.000000 
	C335.739746,289.526642 327.793457,294.318207 316.590302,294.143250 
	C303.121765,293.932922 295.188660,286.735107 293.341309,272.966156 
	C291.757782,261.163544 299.024933,250.106964 310.437836,246.954681 
	C323.083588,243.461884 333.960785,248.526031 339.158203,260.324829 
	C339.488983,261.075684 339.829254,261.822357 340.456665,263.220856 
	C343.612305,253.800873 349.550934,248.020340 358.843170,246.422256 
	C367.678925,244.902695 375.718262,246.744156 382.648315,254.089600 
	C382.948669,251.595535 383.170166,249.756378 383.413361,247.737198 
	C385.521057,247.504364 387.480743,247.287903 390.007751,247.008759 
	C390.201416,243.471420 390.396545,239.907272 390.612061,235.970367 
	C395.709686,235.970367 400.611694,235.970367 405.930786,235.970367 
	C405.930786,239.588547 405.930786,243.034073 405.930786,246.964935 
	C409.346344,247.218338 412.400269,247.444916 415.746399,247.693176 
	C415.746399,250.676010 415.746399,253.443085 415.746399,256.876160 
	C412.823395,257.004059 409.766052,257.137878 406.145172,257.296326 
	C406.145172,264.740173 405.878632,272.013550 406.234467,279.256348 
	C406.491608,284.489563 411.339050,283.402588 414.537445,284.198395 
	C414.699036,284.482574 414.837891,284.620819 414.855713,284.773193 
	C415.911041,293.809631 415.712555,294.068817 406.748230,294.135284 
	C404.422119,294.152527 402.056854,294.135773 399.774384,293.750549 
	C393.980499,292.772614 391.199860,290.037018 390.795776,284.115936 
	C390.331543,277.313263 390.457245,270.469910 390.344116,263.643921 
	C390.311584,261.679626 390.339111,259.714355 390.339111,257.444244 
	C388.251312,257.444244 386.716309,257.444244 384.943939,257.444244 
	C385.318451,259.846649 385.643250,261.930115 386.034790,264.441833 
	C381.077545,264.441833 376.499420,264.441833 371.746582,264.441833 
	C371.674133,264.373932 371.312347,264.197998 371.234283,263.937164 
	C369.949432,259.643036 368.015900,256.136230 362.649384,256.729645 
	C358.672760,257.169373 356.163544,260.540344 355.965942,266.476532 
	C355.845337,270.099457 356.134277,273.787781 356.721619,277.367554 
	C357.274536,280.737366 359.340546,283.218597 363.026154,283.472931 
	C366.630432,283.721649 368.976166,281.829254 370.235077,278.486145 
	C370.523712,277.719666 370.990784,277.020355 371.394897,276.253723 
	C376.104462,276.253723 380.741608,276.253723 385.365875,276.253723 
	C385.867218,284.136627 379.742340,291.006683 370.287262,293.360291 
	C357.144043,296.631958 346.724915,291.734772 341.018555,279.092377 
	C340.869171,278.186920 340.727631,277.904785 340.413269,277.272156 
	C339.514862,275.908264 338.694397,274.136353 337.837494,274.118561 
	C328.292175,273.920593 318.741211,273.993744 309.027374,273.993744 
	C309.127472,278.372467 310.119171,282.057343 313.970398,282.859344 
	C316.696167,283.427002 321.250641,283.037170 322.483368,281.298462 
	C324.940125,277.833252 327.712219,277.911652 330.995300,277.971863 
	C333.980804,278.026642 336.967346,278.023865 339.946716,278.285706 
	C339.939972,278.524902 339.997803,279.000000 339.997803,279.000000 
M310.972534,259.710968 
	C310.529297,261.012726 310.086060,262.314484 309.518127,263.982513 
	C314.768127,263.982513 319.281250,263.982513 323.841919,263.982513 
	C322.798767,256.415710 317.568665,254.484665 310.972534,259.710968 
z"/>
<path fill="#FCFCFF" opacity="1.000000" stroke="none" 
	d="
M174.462265,293.858490 
	C167.439377,294.507935 160.668961,294.535156 155.324753,290.370239 
	C151.177872,287.138458 148.122040,282.506714 144.398499,278.290314 
	C141.195847,286.875946 134.191620,292.380676 124.257637,293.746613 
	C116.705559,294.785004 109.304146,294.193451 102.515549,290.161713 
	C90.967278,283.303162 85.988655,266.275818 91.224571,251.440170 
	C96.087013,237.662750 108.683128,230.779617 124.922920,233.025772 
	C136.768387,234.664139 144.467834,242.452484 145.147171,253.780884 
	C140.216690,253.780884 135.297974,253.780884 130.849365,253.780884 
	C129.046494,251.065582 127.849312,248.109787 125.701408,246.254883 
	C120.365700,241.647064 111.516701,243.712799 108.342400,250.449280 
	C104.299728,259.028656 104.600311,267.941620 108.479141,276.545166 
	C110.431160,280.874908 114.300369,282.902527 119.032692,282.750183 
	C123.858780,282.594788 127.440834,280.089691 128.711411,275.484039 
	C129.661209,272.041138 131.585388,271.587677 134.536682,271.754242 
	C137.668030,271.930969 140.817108,271.793976 144.468628,271.793976 
	C145.027100,262.782867 147.045319,254.673004 155.093826,249.705826 
	C160.889481,246.129013 167.302277,245.403397 173.877213,246.235443 
	C185.479980,247.703705 193.240570,256.065094 193.953796,267.559235 
	C194.830643,281.690125 188.737152,290.084625 174.462265,293.858490 
M171.711502,283.257874 
	C177.886078,280.000336 180.258102,270.448547 176.987473,262.140747 
	C175.642166,258.723480 173.326996,256.658966 169.523788,256.632812 
	C165.731979,256.606750 162.662476,258.475311 162.138214,262.035950 
	C161.406601,267.004730 161.164154,272.220581 161.852112,277.172394 
	C162.494217,281.794281 165.997421,284.166595 171.711502,283.257874 
z"/>
<path fill="#FEFEFF" opacity="1.000000" stroke="none" 
	d="
M234.786285,247.976395 
	C237.308640,251.338989 241.141190,254.422379 241.365372,257.748932 
	C242.142395,269.279022 241.665115,280.893677 241.665115,292.739014 
	C236.802917,292.739014 232.044037,292.739014 226.708588,292.739014 
	C226.708588,285.854675 226.764435,279.068848 226.684677,272.284668 
	C226.645691,268.966095 226.992188,265.434113 225.964752,262.405670 
	C225.215271,260.196564 222.812012,257.920685 220.593918,256.989410 
	C217.507050,255.693344 214.381226,257.363617 213.343063,260.534180 
	C212.123260,264.259491 211.376434,268.256805 211.179977,272.174011 
	C210.841171,278.929077 211.086136,285.713440 211.086136,292.738586 
	C205.762375,292.738586 201.003342,292.738586 195.918152,292.738586 
	C195.918152,277.587372 195.918152,262.535004 195.918152,247.289154 
	C201.004562,247.289154 205.781723,247.289154 210.725159,247.289154 
	C210.942657,249.063477 211.136551,250.645218 211.420868,252.964661 
	C217.959961,244.573959 225.911621,244.680191 234.786285,247.976395 
z"/>
<path fill="#FEFEFF" opacity="1.000000" stroke="none" 
	d="
M261.081879,284.936218 
	C261.081879,287.729797 261.081879,290.034332 261.081879,292.665344 
	C255.929123,292.665344 251.180878,292.665344 246.011261,292.665344 
	C246.011261,277.676849 246.011261,262.643890 246.011261,247.340546 
	C250.919464,247.340546 255.681274,247.340546 260.693787,247.340546 
	C260.914886,249.004059 261.125977,250.592148 261.474670,253.215530 
	C265.804413,246.387039 271.961426,245.427094 278.634247,246.120377 
	C286.281647,246.914902 291.497009,251.712479 291.797394,259.369720 
	C292.226990,270.321899 291.906799,281.303528 291.906799,292.637573 
	C287.045837,292.637573 282.299866,292.637573 276.709839,292.637573 
	C276.709839,287.182129 276.750275,281.611847 276.696533,276.042480 
	C276.656403,271.882263 276.604309,267.716644 276.354431,263.565643 
	C276.132111,259.872162 274.479126,257.266266 270.411865,256.759125 
	C266.155975,256.228516 263.358215,258.396484 262.636047,262.137146 
	C261.636322,267.315491 261.501465,272.667328 261.108368,277.953217 
	C260.948212,280.106598 261.081879,282.281891 261.081879,284.936218 
z"/>
<path fill="#F6F6FF" opacity="1.000000" stroke="none" 
	d="
M361.200836,194.801422 
	C356.415985,199.013687 351.914642,202.971588 347.447723,206.968002 
	C344.384888,209.708252 341.406830,212.196259 340.439636,216.815063 
	C339.499481,221.304718 335.338226,222.617996 330.930756,222.186493 
	C326.291870,221.732315 324.153259,218.785370 322.924255,214.517166 
	C322.208435,212.031204 320.992035,209.376526 319.215057,207.571167 
	C314.918945,203.206375 310.161835,199.295319 305.649109,195.253799 
	C298.369873,200.586807 296.734192,200.667358 289.057648,196.070847 
	C282.959564,201.561142 276.709167,207.046844 270.679535,212.765289 
	C269.741241,213.655151 269.368805,215.646973 269.494843,217.061478 
	C269.916870,221.797028 268.036530,225.183319 263.923096,227.218262 
	C259.959412,229.179123 256.339752,227.888382 253.491486,224.916885 
	C250.312805,221.600647 250.335220,217.703186 252.702332,213.898605 
	C255.119904,210.012939 258.814392,208.546677 263.026794,210.100067 
	C265.698334,211.085251 267.251801,210.465500 269.129028,208.727737 
	C273.404114,204.770294 277.880646,201.031555 282.220978,197.143250 
	C285.133148,194.534393 288.048309,192.263306 288.504822,187.582657 
	C288.905487,183.474640 292.528778,181.233719 296.783936,180.937286 
	C301.167114,180.631943 303.797913,183.073792 305.847717,186.716492 
	C307.569031,189.775406 309.399139,192.923294 311.825012,195.401489 
	C315.767639,199.429153 320.236267,202.941910 324.730530,206.889542 
	C330.046661,202.579987 335.180481,203.236160 340.317566,208.036346 
	C346.387787,202.674896 352.404785,197.493011 358.201752,192.075623 
	C358.941010,191.384781 358.874084,189.388962 358.594055,188.127960 
	C357.505920,183.228317 359.166168,179.566330 363.374817,177.139954 
	C367.182037,174.944992 370.852417,175.767471 373.911407,178.690445 
	C377.158844,181.793488 377.978363,185.659073 375.713348,189.601990 
	C373.459137,193.526123 370.097839,195.580185 365.259827,194.272903 
	C364.115906,193.963791 362.758301,194.445526 361.200836,194.801422 
M372.413086,183.288940 
	C370.218109,182.327835 367.610992,180.170441 365.944855,180.744415 
	C364.301788,181.310471 362.579346,184.774216 362.829193,186.717529 
	C363.029327,188.273911 366.158752,190.604309 367.942200,190.563873 
	C371.514313,190.482864 373.428192,187.873520 372.413086,183.288940 
M255.044174,218.454041 
	C256.435028,223.139175 259.088165,225.255981 262.160309,223.530579 
	C263.758514,222.632965 265.653961,220.202866 265.463745,218.714386 
	C265.235718,216.930038 263.224426,214.627716 261.451752,213.954086 
	C258.480164,212.824936 255.983337,214.292862 255.044174,218.454041 
M301.427795,187.379700 
	C299.389679,186.665009 297.311279,185.335175 295.328522,185.465134 
	C294.128967,185.543747 292.292175,187.813629 292.162781,189.228912 
	C292.008087,190.920868 292.902161,193.428101 294.207550,194.331787 
	C295.512970,195.235504 298.745514,195.383575 299.598114,194.454346 
	C300.997711,192.928955 301.156891,190.265457 301.427795,187.379700 
M336.954376,211.012726 
	C334.901703,210.040131 332.894928,208.496002 330.777802,208.325958 
	C329.647980,208.235214 327.579315,210.363708 327.290405,211.769333 
	C326.960114,213.376251 327.620361,215.889008 328.800323,216.909592 
	C330.016876,217.961823 333.125793,218.588486 334.068481,217.800430 
	C335.660614,216.469498 336.197876,213.876648 336.954376,211.012726 
z"/>
<path fill="#6F66FF" opacity="1.000000" stroke="none" 
	d="
M340.210968,279.001373 
	C339.997803,279.000000 339.939972,278.524902 340.075806,278.192139 
	C340.211609,277.859406 340.474274,277.678772 340.474274,277.678772 
	C340.727631,277.904785 340.869171,278.186920 340.874695,278.764862 
	C340.850433,279.004608 340.424133,279.002747 340.210968,279.001373 
z"/>
<path fill="#6F66FF" opacity="1.000000" stroke="none" 
	d="
M340.082520,277.952942 
	C336.967346,278.023865 333.980804,278.026642 330.995300,277.971863 
	C327.712219,277.911652 324.940125,277.833252 322.483368,281.298462 
	C321.250641,283.037170 316.696167,283.427002 313.970398,282.859344 
	C310.119171,282.057343 309.127472,278.372467 309.027374,273.993744 
	C318.741211,273.993744 328.292175,273.920593 337.837494,274.118561 
	C338.694397,274.136353 339.514862,275.908264 340.413269,277.272156 
	C340.474274,277.678772 340.211609,277.859406 340.082520,277.952942 
z"/>
<path fill="#7067FF" opacity="1.000000" stroke="none" 
	d="
M311.213623,259.372681 
	C317.568665,254.484665 322.798767,256.415710 323.841919,263.982513 
	C319.281250,263.982513 314.768127,263.982513 309.518127,263.982513 
	C310.086060,262.314484 310.529297,261.012726 311.213623,259.372681 
z"/>
<path fill="#6F66FF" opacity="1.000000" stroke="none" 
	d="
M171.346542,283.354034 
	C165.997421,284.166595 162.494217,281.794281 161.852112,277.172394 
	C161.164154,272.220581 161.406601,267.004730 162.138214,262.035950 
	C162.662476,258.475311 165.731979,256.606750 169.523788,256.632812 
	C173.326996,256.658966 175.642166,258.723480 176.987473,262.140747 
	C180.258102,270.448547 177.886078,280.000336 171.346542,283.354034 
z"/>
<path fill="#746BFF" opacity="1.000000" stroke="none" 
	d="
M372.569305,183.640915 
	C373.428192,187.873520 371.514313,190.482864 367.942200,190.563873 
	C366.158752,190.604309 363.029327,188.273911 362.829193,186.717529 
	C362.579346,184.774216 364.301788,181.310471 365.944855,180.744415 
	C367.610992,180.170441 370.218109,182.327835 372.569305,183.640915 
z"/>
<path fill="#736BFF" opacity="1.000000" stroke="none" 
	d="
M255.068115,218.056091 
	C255.983337,214.292862 258.480164,212.824936 261.451752,213.954086 
	C263.224426,214.627716 265.235718,216.930038 265.463745,218.714386 
	C265.653961,220.202866 263.758514,222.632965 262.160309,223.530579 
	C259.088165,225.255981 256.435028,223.139175 255.068115,218.056091 
z"/>
<path fill="#7068FF" opacity="1.000000" stroke="none" 
	d="
M301.633484,187.730789 
	C301.156891,190.265457 300.997711,192.928955 299.598114,194.454346 
	C298.745514,195.383575 295.512970,195.235504 294.207550,194.331787 
	C292.902161,193.428101 292.008087,190.920868 292.162781,189.228912 
	C292.292175,187.813629 294.128967,185.543747 295.328522,185.465134 
	C297.311279,185.335175 299.389679,186.665009 301.633484,187.730789 
z"/>
<path fill="#7067FF" opacity="1.000000" stroke="none" 
	d="
M337.066528,211.413574 
	C336.197876,213.876648 335.660614,216.469498 334.068481,217.800430 
	C333.125793,218.588486 330.016876,217.961823 328.800323,216.909592 
	C327.620361,215.889008 326.960114,213.376251 327.290405,211.769333 
	C327.579315,210.363708 329.647980,208.235214 330.777802,208.325958 
	C332.894928,208.496002 334.901703,210.040131 337.066528,211.413574 
z"/>
</svg>