<svg version="1.1" id="Layer_1" xmlns="http://www.w3.org/2000/svg" xmlns:xlink="http://www.w3.org/1999/xlink" x="0px" y="0px"
	 width="100%" viewBox="0 0 500 500" enable-background="new 0 0 500 500" xml:space="preserve">
<path fill="#6C63FF" opacity="1.000000" stroke="none" 
	d="
M250.000000,501.000000 
	C166.666687,501.000000 83.833374,501.000000 1.000044,501.000000 
	C1.000030,334.333405 1.000030,167.666779 1.000015,1.000134 
	C167.666565,1.000089 334.333130,1.000089 500.999756,1.000045 
	C500.999847,167.666519 500.999847,334.333038 500.999939,500.999786 
	C417.500000,501.000000 334.000000,501.000000 250.000000,501.000000 
M382.006561,300.077942 
	C388.210327,318.603455 403.436676,326.888428 423.879883,322.862061 
	C438.016479,320.077789 448.556549,308.949738 447.709930,297.264801 
	C441.609100,297.264801 435.462402,297.094238 429.339874,297.403259 
	C428.056854,297.468018 426.335083,299.050415 425.718628,300.358978 
	C422.921722,306.295929 420.077301,308.514984 414.875702,308.175781 
	C410.016449,307.858917 406.057587,304.823608 405.339478,298.868378 
	C404.514771,292.029083 404.446747,284.948975 405.232697,278.109375 
	C405.938660,271.965820 410.043060,268.938141 415.228546,268.768524 
	C420.791870,268.586548 423.797241,271.060852 425.950500,277.296753 
	C426.377441,278.533142 427.412537,280.481689 428.231323,280.514771 
	C434.785431,280.779541 441.354980,280.662689 448.602417,280.662689 
	C447.786713,276.514740 447.163971,273.347931 446.503571,269.989746 
	C449.343384,269.989746 451.920074,269.989746 455.005920,269.989746 
	C455.005920,278.757141 454.902771,287.221832 455.042786,295.682495 
	C455.133453,301.162537 455.271759,306.675476 455.955780,312.102203 
	C456.593201,317.159302 459.900024,320.460480 464.747406,321.993011 
	C473.366974,324.718140 482.030853,324.234375 490.660400,322.493011 
	C490.660400,317.692993 490.660400,313.310577 490.660400,308.849213 
	C488.133057,308.621582 485.742126,308.957336 483.912292,308.098083 
	C481.756805,307.085938 478.532867,305.107056 478.458984,303.429016 
	C477.971558,292.361664 478.207245,281.262512 478.207245,269.945953 
	C479.994049,269.843201 481.463715,269.701813 482.934967,269.683197 
	C493.398132,269.550781 493.315277,269.564117 492.617615,258.801605 
	C492.450745,256.227570 491.567322,255.237808 489.025085,255.321854 
	C485.433990,255.440582 481.836029,255.351929 477.594604,255.351929 
	C477.594604,249.148560 477.594604,243.750458 477.594604,238.513672 
	C469.684265,238.513672 462.458496,238.513672 454.831726,238.513672 
	C454.831726,244.237213 454.831726,249.517532 454.831726,255.044250 
	C451.188446,255.264633 447.946503,255.460739 444.522888,255.667847 
	C444.308014,259.087402 444.119293,262.090759 443.903351,265.527863 
	C420.609192,244.537933 395.314484,250.008850 381.483582,278.400574 
	C372.929962,257.726349 359.465881,249.942322 339.489868,254.122650 
	C323.807648,257.404449 312.854462,271.111298 312.200256,287.068024 
	C311.784851,282.485687 311.424255,277.897552 310.941956,273.322266 
	C310.081055,265.155243 306.734436,258.452423 298.692322,255.367783 
	C289.728424,251.929565 280.662262,251.948776 272.295715,257.140869 
	C269.988739,258.572540 268.563171,261.424469 266.181610,264.287811 
	C265.987122,260.671661 265.848022,258.085602 265.696869,255.275024 
	C258.177216,255.275024 250.948105,255.275024 243.550598,255.275024 
	C243.550598,277.611511 243.550598,299.645447 243.550598,321.599976 
	C251.185913,321.599976 258.416656,321.599976 265.951782,321.599976 
	C265.951782,311.052124 265.797302,300.902710 266.024902,290.761902 
	C266.121124,286.473175 266.576965,282.086853 267.654572,277.949402 
	C269.497314,270.874054 273.665344,268.072021 279.886414,268.869781 
	C285.280762,269.561554 288.105408,272.816711 288.328644,279.959167 
	C288.703247,291.943512 288.630524,303.941925 288.739868,315.934479 
	C288.757294,317.845703 288.742310,319.757202 288.742310,321.735840 
	C296.679413,321.735840 303.769989,321.735840 311.337891,321.735840 
	C311.337891,312.666626 311.247345,303.857635 311.414978,295.053528 
	C311.448151,293.310913 312.473419,291.587189 312.914734,290.748688 
	C313.524078,309.534119 323.872742,321.021912 342.473633,323.561157 
	C360.756165,326.056915 375.442719,317.097748 381.310089,299.774231 
	C381.460449,299.648987 381.610779,299.523743 382.006561,300.077942 
M25.993979,311.498291 
	C34.638718,320.488556 45.498047,324.097260 57.631519,323.756073 
	C75.347321,323.257904 89.568581,316.850616 95.961990,297.998932 
	C104.991150,319.536377 121.390129,327.880951 142.467499,322.505066 
	C159.801086,318.084045 169.567093,302.932587 167.320175,283.947449 
	C165.084335,265.056122 152.396118,253.673828 132.991119,253.151688 
	C110.212181,252.538788 99.525375,263.014343 94.866356,290.993927 
	C90.009178,290.993927 85.024178,291.278503 80.088470,290.907410 
	C75.845406,290.588348 73.587173,291.537933 72.424187,296.152679 
	C70.884155,302.263489 66.400421,306.094818 59.975044,306.905670 
	C53.372646,307.738861 47.794777,305.642426 43.805496,300.108490 
	C36.751614,290.323395 36.649227,267.497864 43.615875,257.590149 
	C47.651657,251.850616 53.309887,249.734741 60.147137,250.503311 
	C67.021591,251.276077 71.397423,255.032654 73.319092,261.678528 
	C73.632423,262.762146 74.065147,263.811218 74.417953,264.806488 
	C81.983223,264.806488 89.251701,264.806488 96.524979,264.806488 
	C96.187027,255.739471 92.364929,247.859726 85.761856,242.325638 
	C68.038223,227.471390 35.381805,231.979385 22.494230,251.059296 
	C11.069999,267.972717 12.440864,295.226990 25.993979,311.498291 
M192.226471,320.854553 
	C192.295654,311.528656 192.187881,302.196747 192.504150,292.879242 
	C192.678131,287.753723 193.043381,282.524170 194.259445,277.571625 
	C195.897781,270.899323 200.269531,268.145355 206.276566,268.854889 
	C211.819656,269.509583 214.849533,273.245361 214.959473,280.319244 
	C215.145828,292.312561 215.073700,304.309906 215.108475,316.305542 
	C215.113602,318.071442 215.109192,319.837372 215.109192,321.637268 
	C223.057663,321.637268 230.284775,321.637268 237.909729,321.637268 
	C237.909729,311.973572 238.027191,302.669586 237.873138,293.370117 
	C237.746460,285.722321 237.633606,278.046753 236.883072,270.445831 
	C236.302338,264.564484 233.135162,259.850128 227.931488,256.706299 
	C217.143082,250.188416 202.786057,252.478424 194.677567,261.992126 
	C194.316147,262.416168 193.663040,262.591675 192.824966,263.063599 
	C192.536804,260.206787 192.291367,257.773621 192.049667,255.377533 
	C184.557251,255.377533 177.330261,255.377533 170.140854,255.377533 
	C170.140854,277.697571 170.140854,299.613342 170.140854,321.642517 
	C177.579224,321.642517 184.687637,321.642517 192.226471,320.854553 
M278.073639,210.317322 
	C278.167664,208.509918 277.519165,205.892990 278.470551,205.020340 
	C288.004425,196.275589 297.801300,187.817596 306.411011,180.256378 
	C311.459991,181.876450 315.529480,184.353195 319.428802,184.109299 
	C323.456146,183.857407 327.318115,180.960800 331.916138,178.927704 
	C339.088928,185.281662 347.126434,192.272507 354.958740,199.486176 
	C356.067688,200.507507 356.599030,202.593445 356.677917,204.221512 
	C357.059845,212.103256 361.727631,217.379059 369.108612,217.920151 
	C376.694336,218.476257 381.779358,214.283096 383.597412,206.385025 
	C384.044250,204.443726 385.093964,202.307312 386.531952,200.983490 
	C394.496796,193.651169 402.713013,186.592743 410.740692,179.327377 
	C413.322815,176.990448 415.523224,175.784149 419.455475,176.892868 
	C427.229340,179.084732 434.421112,173.638962 435.691803,165.510773 
	C436.806641,158.379501 431.638916,151.785950 424.063934,150.674683 
	C416.232819,149.525848 409.289886,154.801468 408.790131,162.748199 
	C408.600494,165.763458 409.587463,168.852707 410.105774,172.366562 
	C400.961823,180.425140 391.512482,188.752853 382.123260,197.027588 
	C373.324921,189.450760 368.460083,189.124466 359.187927,195.392349 
	C350.794800,187.971054 342.284302,180.528076 333.912048,172.932724 
	C332.934113,172.045532 332.504913,170.365936 332.186859,168.970383 
	C330.537567,161.733795 324.880707,156.924393 318.150665,157.185379 
	C311.488983,157.443710 306.154999,162.941345 305.011810,170.084320 
	C304.659729,172.283997 303.486847,174.787247 301.879486,176.277466 
	C293.941284,183.637207 285.635162,190.599350 277.668976,197.930115 
	C274.864594,200.510788 272.682648,201.848495 268.617767,199.964691 
	C263.005890,197.363937 256.990082,199.914673 253.539993,205.260864 
	C249.912949,210.881332 250.442566,217.208344 254.919556,221.741852 
	C258.860413,225.732452 265.399475,227.247192 270.100098,225.258392 
	C275.342896,223.040176 278.254517,217.931549 278.073639,210.317322 
z"/>
<path fill="#FCFCFF" opacity="1.000000" stroke="none" 
	d="
M313.057617,287.199982 
	C312.854462,271.111298 323.807648,257.404449 339.489868,254.122650 
	C359.465881,249.942322 372.929962,257.726349 381.483582,278.400574 
	C395.314484,250.008850 420.609192,244.537933 443.903351,265.527863 
	C444.119293,262.090759 444.308014,259.087402 444.522888,255.667847 
	C447.946503,255.460739 451.188446,255.264633 454.831726,255.044250 
	C454.831726,249.517532 454.831726,244.237213 454.831726,238.513672 
	C462.458496,238.513672 469.684265,238.513672 477.594604,238.513672 
	C477.594604,243.750458 477.594604,249.148560 477.594604,255.351929 
	C481.836029,255.351929 485.433990,255.440582 489.025085,255.321854 
	C491.567322,255.237808 492.450745,256.227570 492.617615,258.801605 
	C493.315277,269.564117 493.398132,269.550781 482.934967,269.683197 
	C481.463715,269.701813 479.994049,269.843201 478.207245,269.945953 
	C478.207245,281.262512 477.971558,292.361664 478.458984,303.429016 
	C478.532867,305.107056 481.756805,307.085938 483.912292,308.098083 
	C485.742126,308.957336 488.133057,308.621582 490.660400,308.849213 
	C490.660400,313.310577 490.660400,317.692993 490.660400,322.493011 
	C482.030853,324.234375 473.366974,324.718140 464.747406,321.993011 
	C459.900024,320.460480 456.593201,317.159302 455.955780,312.102203 
	C455.271759,306.675476 455.133453,301.162537 455.042786,295.682495 
	C454.902771,287.221832 455.005920,278.757141 455.005920,269.989746 
	C451.920074,269.989746 449.343384,269.989746 446.503571,269.989746 
	C447.163971,273.347931 447.786713,276.514740 448.602417,280.662689 
	C441.354980,280.662689 434.785431,280.779541 428.231323,280.514771 
	C427.412537,280.481689 426.377441,278.533142 425.950500,277.296753 
	C423.797241,271.060852 420.791870,268.586548 415.228546,268.768524 
	C410.043060,268.938141 405.938660,271.965820 405.232697,278.109375 
	C404.446747,284.948975 404.514771,292.029083 405.339478,298.868378 
	C406.057587,304.823608 410.016449,307.858917 414.875702,308.175781 
	C420.077301,308.514984 422.921722,306.295929 425.718628,300.358978 
	C426.335083,299.050415 428.056854,297.468018 429.339874,297.403259 
	C435.462402,297.094238 441.609100,297.264801 447.709930,297.264801 
	C448.556549,308.949738 438.016479,320.077789 423.879883,322.862061 
	C403.436676,326.888428 388.210327,318.603455 381.859314,299.339355 
	C381.344574,297.199371 380.977051,295.797974 380.646301,294.536682 
	C365.499817,294.536682 350.679688,294.536682 335.862305,294.536682 
	C335.964874,301.651886 338.564178,306.172455 343.214386,307.724579 
	C347.920959,309.295532 354.666748,308.289764 356.362244,304.564606 
	C358.641266,299.557465 362.289734,299.845703 366.427643,299.973175 
	C371.234436,300.121307 376.046539,300.096436 380.856354,300.146667 
	C375.442719,317.097748 360.756165,326.056915 342.473633,323.561157 
	C323.872742,321.021912 313.524078,309.534119 312.967224,289.969971 
	C313.032349,288.527496 313.044983,287.863739 313.057617,287.199982 
M340.651154,270.892456 
	C338.989746,273.678009 337.328369,276.463531 335.325348,279.821838 
	C343.792175,279.821838 350.806976,279.821838 357.845367,279.821838 
	C356.913513,270.020233 350.159271,266.325836 340.651154,270.892456 
z"/>
<path fill="#FDFDFF" opacity="1.000000" stroke="none" 
	d="
M25.750917,311.235718 
	C12.440864,295.226990 11.069999,267.972717 22.494230,251.059296 
	C35.381805,231.979385 68.038223,227.471390 85.761856,242.325638 
	C92.364929,247.859726 96.187027,255.739471 96.524979,264.806488 
	C89.251701,264.806488 81.983223,264.806488 74.417953,264.806488 
	C74.065147,263.811218 73.632423,262.762146 73.319092,261.678528 
	C71.397423,255.032654 67.021591,251.276077 60.147137,250.503311 
	C53.309887,249.734741 47.651657,251.850616 43.615875,257.590149 
	C36.649227,267.497864 36.751614,290.323395 43.805496,300.108490 
	C47.794777,305.642426 53.372646,307.738861 59.975044,306.905670 
	C66.400421,306.094818 70.884155,302.263489 72.424187,296.152679 
	C73.587173,291.537933 75.845406,290.588348 80.088470,290.907410 
	C85.024178,291.278503 90.009178,290.993927 94.866356,290.993927 
	C99.525375,263.014343 110.212181,252.538788 132.991119,253.151688 
	C152.396118,253.673828 165.084335,265.056122 167.320175,283.947449 
	C169.567093,302.932587 159.801086,318.084045 142.467499,322.505066 
	C121.390129,327.880951 104.991150,319.536377 95.961990,297.998932 
	C89.568581,316.850616 75.347321,323.257904 57.631519,323.756073 
	C45.498047,324.097260 34.638718,320.488556 25.750917,311.235718 
M121.683716,274.384430 
	C117.648018,282.639008 117.926125,291.200348 120.398346,299.703339 
	C122.060173,305.419067 126.091553,308.174316 131.380569,308.224426 
	C136.894806,308.276672 141.665756,305.488129 142.565002,299.500061 
	C143.628342,292.419312 143.423782,285.017609 142.740219,277.853210 
	C142.318802,273.436462 139.082504,269.958466 134.290726,269.026367 
	C129.333115,268.062012 125.016510,269.239227 121.683716,274.384430 
z"/>
<path fill="#FDFDFF" opacity="1.000000" stroke="none" 
	d="
M312.628937,287.134003 
	C313.044983,287.863739 313.032349,288.527496 313.030457,289.523010 
	C312.473419,291.587189 311.448151,293.310913 311.414978,295.053528 
	C311.247345,303.857635 311.337891,312.666626 311.337891,321.735840 
	C303.769989,321.735840 296.679413,321.735840 288.742310,321.735840 
	C288.742310,319.757202 288.757294,317.845703 288.739868,315.934479 
	C288.630524,303.941925 288.703247,291.943512 288.328644,279.959167 
	C288.105408,272.816711 285.280762,269.561554 279.886414,268.869781 
	C273.665344,268.072021 269.497314,270.874054 267.654572,277.949402 
	C266.576965,282.086853 266.121124,286.473175 266.024902,290.761902 
	C265.797302,300.902710 265.951782,311.052124 265.951782,321.599976 
	C258.416656,321.599976 251.185913,321.599976 243.550598,321.599976 
	C243.550598,299.645447 243.550598,277.611511 243.550598,255.275024 
	C250.948105,255.275024 258.177216,255.275024 265.696869,255.275024 
	C265.848022,258.085602 265.987122,260.671661 266.181610,264.287811 
	C268.563171,261.424469 269.988739,258.572540 272.295715,257.140869 
	C280.662262,251.948776 289.728424,251.929565 298.692322,255.367783 
	C306.734436,258.452423 310.081055,265.155243 310.941956,273.322266 
	C311.424255,277.897552 311.784851,282.485687 312.628937,287.134003 
z"/>
<path fill="#FDFDFF" opacity="1.000000" stroke="none" 
	d="
M192.011261,321.248535 
	C184.687637,321.642517 177.579224,321.642517 170.140854,321.642517 
	C170.140854,299.613342 170.140854,277.697571 170.140854,255.377533 
	C177.330261,255.377533 184.557251,255.377533 192.049667,255.377533 
	C192.291367,257.773621 192.536804,260.206787 192.824966,263.063599 
	C193.663040,262.591675 194.316147,262.416168 194.677567,261.992126 
	C202.786057,252.478424 217.143082,250.188416 227.931488,256.706299 
	C233.135162,259.850128 236.302338,264.564484 236.883072,270.445831 
	C237.633606,278.046753 237.746460,285.722321 237.873138,293.370117 
	C238.027191,302.669586 237.909729,311.973572 237.909729,321.637268 
	C230.284775,321.637268 223.057663,321.637268 215.109192,321.637268 
	C215.109192,319.837372 215.113602,318.071442 215.108475,316.305542 
	C215.073700,304.309906 215.145828,292.312561 214.959473,280.319244 
	C214.849533,273.245361 211.819656,269.509583 206.276566,268.854889 
	C200.269531,268.145355 195.897781,270.899323 194.259445,277.571625 
	C193.043381,282.524170 192.678131,287.753723 192.504150,292.879242 
	C192.187881,302.196747 192.295654,311.528656 192.011261,321.248535 
z"/>
<path fill="#FAF9FF" opacity="1.000000" stroke="none" 
	d="
M278.134125,210.686707 
	C278.254517,217.931549 275.342896,223.040176 270.100098,225.258392 
	C265.399475,227.247192 258.860413,225.732452 254.919556,221.741852 
	C250.442566,217.208344 249.912949,210.881332 253.539993,205.260864 
	C256.990082,199.914673 263.005890,197.363937 268.617767,199.964691 
	C272.682648,201.848495 274.864594,200.510788 277.668976,197.930115 
	C285.635162,190.599350 293.941284,183.637207 301.879486,176.277466 
	C303.486847,174.787247 304.659729,172.283997 305.011810,170.084320 
	C306.154999,162.941345 311.488983,157.443710 318.150665,157.185379 
	C324.880707,156.924393 330.537567,161.733795 332.186859,168.970383 
	C332.504913,170.365936 332.934113,172.045532 333.912048,172.932724 
	C342.284302,180.528076 350.794800,187.971054 359.187927,195.392349 
	C368.460083,189.124466 373.324921,189.450760 382.123260,197.027588 
	C391.512482,188.752853 400.961823,180.425140 410.105774,172.366562 
	C409.587463,168.852707 408.600494,165.763458 408.790131,162.748199 
	C409.289886,154.801468 416.232819,149.525848 424.063934,150.674683 
	C431.638916,151.785950 436.806641,158.379501 435.691803,165.510773 
	C434.421112,173.638962 427.229340,179.084732 419.455475,176.892868 
	C415.523224,175.784149 413.322815,176.990448 410.740692,179.327377 
	C402.713013,186.592743 394.496796,193.651169 386.531952,200.983490 
	C385.093964,202.307312 384.044250,204.443726 383.597412,206.385025 
	C381.779358,214.283096 376.694336,218.476257 369.108612,217.920151 
	C361.727631,217.379059 357.059845,212.103256 356.677917,204.221512 
	C356.599030,202.593445 356.067688,200.507507 354.958740,199.486176 
	C347.126434,192.272507 339.088928,185.281662 331.916138,178.927704 
	C327.318115,180.960800 323.456146,183.857407 319.428802,184.109299 
	C315.529480,184.353195 311.459991,181.876450 306.411011,180.256378 
	C297.801300,187.817596 288.004425,196.275589 278.470551,205.020340 
	C277.519165,205.892990 278.167664,208.509918 278.134125,210.686707 
M423.883026,171.617371 
	C429.484833,168.711578 431.355530,165.312729 429.422455,161.094070 
	C427.712952,157.363220 424.724854,155.304123 420.569763,156.317398 
	C416.645294,157.274414 414.119965,159.902527 414.359009,164.213074 
	C414.613037,168.794220 417.933502,171.516647 423.883026,171.617371 
M326.274719,169.177979 
	C324.792450,164.904968 321.963837,162.301117 317.298767,163.281403 
	C313.676117,164.042648 310.941711,166.303436 310.975098,170.482666 
	C311.010406,174.903931 313.459015,177.590103 317.665009,178.544098 
	C322.528839,179.647293 325.853149,176.299927 326.274719,169.177979 
M364.081787,199.559158 
	C361.319824,205.034927 362.223358,209.273285 366.597473,211.360092 
	C370.777222,213.354156 375.065918,211.917313 377.108337,207.789597 
	C378.799896,204.371078 378.206818,201.258575 375.346680,198.820251 
	C371.812927,195.807617 368.147400,195.833679 364.081787,199.559158 
M271.626373,209.025848 
	C269.119507,205.587967 265.701813,203.766312 261.779144,205.675446 
	C259.753784,206.661163 257.269073,209.402527 257.313843,211.295761 
	C257.377502,213.988693 258.929504,217.773132 261.047302,218.976654 
	C263.201630,220.200912 267.247589,219.698441 269.678162,218.436356 
	C272.843781,216.792618 273.389923,213.209106 271.626373,209.025848 
z"/>
<path fill="#6C63FF" opacity="1.000000" stroke="none" 
	d="
M381.083221,299.960449 
	C376.046539,300.096436 371.234436,300.121307 366.427643,299.973175 
	C362.289734,299.845703 358.641266,299.557465 356.362244,304.564606 
	C354.666748,308.289764 347.920959,309.295532 343.214386,307.724579 
	C338.564178,306.172455 335.964874,301.651886 335.862305,294.536682 
	C350.679688,294.536682 365.499817,294.536682 380.646301,294.536682 
	C380.977051,295.797974 381.344574,297.199371 381.736633,298.999634 
	C381.610779,299.523743 381.460449,299.648987 381.083221,299.960449 
z"/>
<path fill="#6F66FF" opacity="1.000000" stroke="none" 
	d="
M340.954102,270.641510 
	C350.159271,266.325836 356.913513,270.020233 357.845367,279.821838 
	C350.806976,279.821838 343.792175,279.821838 335.325348,279.821838 
	C337.328369,276.463531 338.989746,273.678009 340.954102,270.641510 
z"/>
<path fill="#6D64FF" opacity="1.000000" stroke="none" 
	d="
M121.870316,274.050629 
	C125.016510,269.239227 129.333115,268.062012 134.290726,269.026367 
	C139.082504,269.958466 142.318802,273.436462 142.740219,277.853210 
	C143.423782,285.017609 143.628342,292.419312 142.565002,299.500061 
	C141.665756,305.488129 136.894806,308.276672 131.380569,308.224426 
	C126.091553,308.174316 122.060173,305.419067 120.398346,299.703339 
	C117.926125,291.200348 117.648018,282.639008 121.870316,274.050629 
z"/>
<path fill="#7168FF" opacity="1.000000" stroke="none" 
	d="
M423.508209,171.699432 
	C417.933502,171.516647 414.613037,168.794220 414.359009,164.213074 
	C414.119965,159.902527 416.645294,157.274414 420.569763,156.317398 
	C424.724854,155.304123 427.712952,157.363220 429.422455,161.094070 
	C431.355530,165.312729 429.484833,168.711578 423.508209,171.699432 
z"/>
<path fill="#7169FF" opacity="1.000000" stroke="none" 
	d="
M326.370361,169.535263 
	C325.853149,176.299927 322.528839,179.647293 317.665009,178.544098 
	C313.459015,177.590103 311.010406,174.903931 310.975098,170.482666 
	C310.941711,166.303436 313.676117,164.042648 317.298767,163.281403 
	C321.963837,162.301117 324.792450,164.904968 326.370361,169.535263 
z"/>
<path fill="#7067FF" opacity="1.000000" stroke="none" 
	d="
M364.351868,199.275482 
	C368.147400,195.833679 371.812927,195.807617 375.346680,198.820251 
	C378.206818,201.258575 378.799896,204.371078 377.108337,207.789597 
	C375.065918,211.917313 370.777222,213.354156 366.597473,211.360092 
	C362.223358,209.273285 361.319824,205.034927 364.351868,199.275482 
z"/>
<path fill="#6F66FF" opacity="1.000000" stroke="none" 
	d="
M271.787628,209.366302 
	C273.389923,213.209106 272.843781,216.792618 269.678162,218.436356 
	C267.247589,219.698441 263.201630,220.200912 261.047302,218.976654 
	C258.929504,217.773132 257.377502,213.988693 257.313843,211.295761 
	C257.269073,209.402527 259.753784,206.661163 261.779144,205.675446 
	C265.701813,203.766312 269.119507,205.587967 271.787628,209.366302 
z"/>
</svg>